<svg width="401" height="45" viewBox="0 0 401 45" fill="none" xmlns="http://www.w3.org/2000/svg">
<path d="M15.9094 44.5C10.6264 44.5 6.76382 43.3288 4.32167 40.9863C1.92935 38.594 0.733191 34.8061 0.733191 29.6228V15.3436C0.733191 10.26 1.92935 6.52198 4.32167 4.12967C6.71398 1.73735 10.5766 0.541195 15.9094 0.541195H37.7393C42.9725 0.541195 46.7853 1.73735 49.1776 4.12967C51.6197 6.52198 52.8408 10.26 52.8408 15.3436V29.6228C52.8408 34.8061 51.6197 38.594 49.1776 40.9863C46.7354 43.3288 42.9227 44.5 37.7393 44.5H15.9094ZM21.0679 34.3327H32.6557C36.5432 34.3327 38.4869 32.5633 38.4869 29.0247V15.9417C38.4869 12.4529 36.5432 10.7085 32.6557 10.7085H21.0679C19.0743 10.7085 17.5791 11.1073 16.5823 11.9047C15.5855 12.7021 15.0871 14.0478 15.0871 15.9417V29.0247C15.0871 30.8688 15.5855 32.2145 16.5823 33.0617C17.5791 33.909 19.0743 34.3327 21.0679 34.3327ZM64.0484 44.5V6.52198L63.3008 0.541195H111.446V10.7085H78.6266V17.5117H103.372V27.9033H78.6266V44.5H64.0484ZM118.933 44.5V6.52198L118.185 0.541195H166.33V10.7085H133.511V17.5117H158.256V27.9033H133.511V44.5H118.933ZM173.069 44.5L173.817 38.5192V0.541195H188.171V34.2579H214.636L219.121 43.6776C219.121 43.877 218.449 44.0764 217.103 44.2757C215.757 44.4252 213.44 44.5 210.15 44.5H173.069ZM238.805 44.5C233.522 44.5 229.659 43.3288 227.217 40.9863C224.825 38.594 223.629 34.8061 223.629 29.6228V15.3436C223.629 10.26 224.825 6.52198 227.217 4.12967C229.609 1.73735 233.472 0.541195 238.805 0.541195H260.635C265.868 0.541195 269.681 1.73735 272.073 4.12967C274.515 6.52198 275.736 10.26 275.736 15.3436V29.6228C275.736 34.8061 274.515 38.594 272.073 40.9863C269.631 43.3288 265.818 44.5 260.635 44.5H238.805ZM243.963 34.3327H255.551C259.439 34.3327 261.382 32.5633 261.382 29.0247V15.9417C261.382 12.4529 259.439 10.7085 255.551 10.7085H243.963C241.97 10.7085 240.474 11.1073 239.478 11.9047C238.481 12.7021 237.982 14.0478 237.982 15.9417V29.0247C237.982 30.8688 238.481 32.2145 239.478 33.0617C240.474 33.909 241.97 34.3327 243.963 34.3327ZM278.55 44.5L300.455 0.541195H319.892L341.722 44.5H325.649L321.986 36.5007H298.362L294.25 44.5H278.55ZM302.473 26.1838H317.799L310.547 10.26H309.8L302.473 26.1838ZM348.326 44.5V6.52198L347.578 0.541195H382.267C388.297 0.541195 392.808 1.73735 395.798 4.12967C398.838 6.52198 400.359 10.26 400.359 15.3436V29.6228C400.359 34.8061 398.863 38.594 395.873 40.9863C392.883 43.3288 388.347 44.5 382.267 44.5H348.326ZM362.904 34.1831H380.024C383.862 34.1831 385.805 32.4138 385.855 28.8752V15.9417C385.855 14.4964 385.432 13.2753 384.584 12.2785C383.737 11.2319 382.217 10.7085 380.024 10.7085H362.904V34.1831Z" fill="black"/>
</svg>
